<svg width="30" height="30" viewBox="0 0 30 30" fill="none" xmlns="http://www.w3.org/2000/svg">
<path d="M17.2 14.7625C17.2 16.1156 16.1031 17.2125 14.75 17.2125C13.3969 17.2125 12.3 16.1156 12.3 14.7625C12.3 13.4094 13.3969 12.3125 14.75 12.3125C16.1031 12.3125 17.2 13.4094 17.2 14.7625Z" fill="#016555"/>
<path fill-rule="evenodd" clip-rule="evenodd" d="M24.0331 10.9135C24.2711 11.4936 24.8354 11.8732 25.4625 11.875C25.8736 11.875 26.2678 12.0383 26.5585 12.329C26.8492 12.6197 27.0125 13.0139 27.0125 13.425V16.1C27.0125 16.956 26.3185 17.65 25.4625 17.65C24.8354 17.6518 24.2711 18.0314 24.0331 18.6115C23.795 19.1917 23.9299 19.8582 24.375 20.3C24.972 20.9118 24.972 21.8882 24.375 22.5L22.5 24.375C21.8882 24.972 20.9118 24.972 20.3 24.375C19.8582 23.9299 19.1917 23.795 18.6115 24.0331C18.0314 24.2711 17.6518 24.8354 17.65 25.4625C17.65 26.3185 16.956 27.0125 16.1 27.0125H13.425C12.569 27.0125 11.875 26.3185 11.875 25.4625C11.8732 24.8354 11.4936 24.2711 10.9135 24.0331C10.3333 23.795 9.66682 23.9299 9.225 24.375C8.61319 24.972 7.63681 24.972 7.025 24.375L5.15 22.5C4.55296 21.8882 4.55296 20.9118 5.15 20.3C5.59668 19.8566 5.73087 19.1871 5.48957 18.6057C5.24827 18.0244 4.6794 17.6467 4.05 17.65C3.19396 17.65 2.5 16.956 2.5 16.1V13.425C2.5 12.569 3.19396 11.875 4.05 11.875C4.67712 11.8732 5.24135 11.4936 5.47944 10.9135C5.71753 10.3333 5.58256 9.66682 5.1375 9.225C4.54046 8.61319 4.54046 7.63681 5.1375 7.025L7.0125 5.15C7.62431 4.55296 8.60069 4.55296 9.2125 5.15C9.65593 5.59668 10.3254 5.73087 10.9068 5.48957C11.4881 5.24827 11.8658 4.6794 11.8625 4.05C11.8625 3.19396 12.5565 2.5 13.4125 2.5H16.1C16.5111 2.5 16.9053 2.6633 17.196 2.95398C17.4867 3.24467 17.65 3.63891 17.65 4.05C17.6467 4.6794 18.0244 5.24827 18.6057 5.48957C19.1871 5.73087 19.8566 5.59668 20.3 5.15C20.9118 4.55296 21.8882 4.55296 22.5 5.15L24.375 7.025C24.972 7.63681 24.972 8.61319 24.375 9.225C23.9299 9.66682 23.795 10.3333 24.0331 10.9135ZM10.425 14.7625C10.425 17.1511 12.3614 19.0875 14.75 19.0875C17.1386 19.0875 19.075 17.1511 19.075 14.7625C19.075 12.3739 17.1386 10.4375 14.75 10.4375C12.3614 10.4375 10.425 12.3739 10.425 14.7625Z" fill="#016555"/>
</svg>
