<svg width="145" height="76" viewBox="0 0 145 76" fill="none" xmlns="http://www.w3.org/2000/svg">
<g clip-path="url(#clip0_146_316)">
<path d="M0 10.8589C0 5.33604 4.47715 0.858887 10 0.858887H135C140.523 0.858887 145 5.33604 145 10.8589V75.8589H0V10.8589Z" fill="#00C6A6"/>
<path fill-rule="evenodd" clip-rule="evenodd" d="M97.1363 26.4089L103.187 26.4089C107.034 26.4089 110.153 29.4818 110.153 33.2723L110.153 44.3576C110.153 48.1482 107.034 51.221 103.187 51.221L42.0386 51.221C38.1916 51.221 35.0738 48.1482 35.0738 44.3576L35.0738 33.2723C35.0738 29.4818 38.1916 26.4089 42.0387 26.4089L88.7752 26.4089C88.7752 26.0276 89.0888 25.7186 89.4756 25.7186L96.4359 25.7186C96.8227 25.7186 97.1363 26.0276 97.1363 26.4089Z" fill="#016555"/>
<path fill-rule="evenodd" clip-rule="evenodd" d="M80.3904 39.1359C80.7639 39.1359 81.0666 38.8376 81.0666 38.4696C81.0666 38.1016 80.7639 37.8033 80.3904 37.8033C77.6718 37.8033 67.5543 37.8033 64.8354 37.8033C64.4621 37.8033 64.16 38.1016 64.16 38.4696C64.16 38.8376 64.4621 39.1359 64.8354 39.1359C67.5543 39.1359 77.6718 39.1359 80.3904 39.1359Z" fill="white"/>
<path fill-rule="evenodd" clip-rule="evenodd" d="M116.366 13.7124H-3.57635V16.2405H116.366C122.084 16.2405 126.719 20.8758 126.719 26.5937C126.719 32.2589 122.169 36.8613 116.524 36.9457V35.0597H111.418V41.5876H116.524V39.474C123.565 39.3894 129.247 33.6551 129.247 26.5937C129.247 19.4796 123.48 13.7124 116.366 13.7124ZM28.634 62.9684H147.263V60.4403H28.634C22.9161 60.4403 18.2808 55.805 18.2808 50.0871C18.2808 44.4219 22.8309 39.8195 28.476 39.735V41.5876H33.582V35.0598H28.476V37.2067C21.4347 37.2913 15.7527 43.0257 15.7527 50.0871C15.7527 57.2012 21.5198 62.9684 28.634 62.9684Z" fill="white"/>
</g>
<defs>
<clipPath id="clip0_146_316">
<path d="M0 10.8589C0 5.33604 4.47715 0.858887 10 0.858887H135C140.523 0.858887 145 5.33604 145 10.8589V75.8589H0V10.8589Z" fill="white"/>
</clipPath>
</defs>
</svg>
