<svg width="31" height="30" viewBox="0 0 31 30" fill="none" xmlns="http://www.w3.org/2000/svg">
<path fill-rule="evenodd" clip-rule="evenodd" d="M18.5671 4.754L24.8197 9.37242C26.0248 10.2445 26.7418 11.6389 26.75 13.1264V21.4869C26.6725 24.1677 24.4458 26.2834 21.7645 26.2237H9.24737C6.5615 26.2901 4.32743 24.1725 4.25 21.4869V13.1264C4.25824 11.6389 4.97523 10.2445 6.18026 9.37242L12.4329 4.754C14.2585 3.41533 16.7415 3.41533 18.5671 4.754ZM10.1711 21.2145H20.8289C21.3195 21.2145 21.7171 20.8169 21.7171 20.3264C21.7171 19.8358 21.3195 19.4382 20.8289 19.4382H10.1711C9.68054 19.4382 9.2829 19.8358 9.2829 20.3264C9.2829 20.8169 9.68054 21.2145 10.1711 21.2145Z" fill="#00C6A6"/>
</svg>
