<svg width="31" height="30" viewBox="0 0 31 30" fill="none" xmlns="http://www.w3.org/2000/svg">
<path fill-rule="evenodd" clip-rule="evenodd" d="M10.75 4.575L10.75 4.1C10.7218 3.36581 11.291 2.74629 12.025 2.7125L17.75 2.7125C18.474 2.7594 19.0286 3.37501 19 4.1L19 4.6125C21.3283 5.08777 23.0005 7.13616 23 9.5125L23 21.25C23 24.0114 20.7614 26.25 18 26.25L11.75 26.25C8.98858 26.25 6.75 24.0114 6.75 21.25L6.75 9.475C6.74951 7.09866 8.42167 5.05027 10.75 4.575ZM18.325 20.3875C18.325 19.8697 17.9053 19.45 17.3875 19.45L12.3875 19.45C11.8697 19.45 11.45 19.8697 11.45 20.3875C11.45 20.9053 11.8697 21.325 12.3875 21.325L17.3875 21.325C17.9053 21.325 18.325 20.9053 18.325 20.3875ZM17.3875 14.45C17.9053 14.45 18.325 14.8697 18.325 15.3875C18.325 15.9053 17.9053 16.325 17.3875 16.325L12.3875 16.325C11.8697 16.325 11.45 15.9053 11.45 15.3875C11.45 14.8697 11.8697 14.45 12.3875 14.45L17.3875 14.45ZM18.325 10.3875C18.325 9.86973 17.9053 9.45 17.3875 9.45L12.3875 9.45C11.8697 9.45 11.45 9.86973 11.45 10.3875C11.45 10.9053 11.8697 11.325 12.3875 11.325L17.3875 11.325C17.9053 11.325 18.325 10.9053 18.325 10.3875Z" fill="#016555"/>
</svg>
